<svg xmlns="http://www.w3.org/2000/svg" viewBox="0 0 2400 1600"><defs><linearGradient id="s" x2="0" y2="1"><stop stop-color="#9babae"/><stop offset="1" stop-color="#ead8bd"/></linearGradient><linearGradient id="m" x2="1" y2="1"><stop stop-color="#7c918d"/><stop offset="1" stop-color="#263e3d"/></linearGradient></defs><path fill="url(#s)" d="M0 0h2400v1600H0z"/><circle cx="1780" cy="330" r="140" fill="#ebddbe" opacity=".65"/><path d="m0 940 470-450 290 295 495-650 481 636 321-286 343 400v715H0Z" fill="#b3b9b0"/><path d="m0 1180 420-390 226 230 530-610 439 606 310-201 475 370v415H0Z" fill="url(#m)"/><path d="m1176 410-193 222 168-81 56 76 64-53 184 226Z" fill="#d7dad0"/><path d="M0 1300 440 1180 760 1360 1340 1110 1880 1360 2400 1140v460H0Z" fill="#314c40"/><path d="M0 1400 500 1330 1100 1520 1750 1310 2400 1390v210H0Z" fill="#1b362c"/></svg>
